<svg width="616" height="397" viewBox="0 0 616 397" fill="none" xmlns="http://www.w3.org/2000/svg">
<path d="M0 85C0 38.0558 38.0558 0 85 0H531C577.944 0 616 38.0558 616 85V312C616 358.944 577.944 397 531 397H85C38.0558 397 0 358.944 0 312V85Z" fill="#FFFEF0"/>
<g filter="url(#filter0_f_488_422)">
<path d="M536 203C536 279.768 444.89 342 332.5 342C220.11 342 129 279.768 129 203C129 126.232 220.11 64 332.5 64C444.89 64 536 126.232 536 203Z" fill="#FFFBD6"/>
</g>
<g filter="url(#filter1_d_488_422)">
<path d="M65 110.852C65 103.12 71.268 96.8516 79 96.8516H389.134C396.866 96.8516 403.134 103.12 403.134 110.852V288.855C403.134 296.587 396.866 302.855 389.134 302.855H79C71.268 302.855 65 296.587 65 288.855V110.852Z" fill="white"/>
</g>
<path d="M112.124 150.864C112.124 146.998 115.258 143.865 119.124 143.865H345.704C349.57 143.865 352.704 146.999 352.704 150.865V269.356C352.704 273.222 349.57 276.356 345.704 276.356H119.124C115.258 276.356 112.124 273.222 112.124 269.356V150.864Z" fill="#FBF1FC" fill-opacity="0.4"/>
<path d="M217.119 211.973C217.119 209.764 218.91 207.973 221.119 207.973H278.431C280.64 207.973 282.431 209.764 282.431 211.973V221.924C282.431 224.133 280.64 225.924 278.431 225.924H221.119C218.91 225.924 217.119 224.133 217.119 221.924V211.973Z" fill="white"/>
<path fill-rule="evenodd" clip-rule="evenodd" d="M278.431 208.973H221.119C219.462 208.973 218.119 210.317 218.119 211.973V221.924C218.119 223.581 219.462 224.924 221.119 224.924H278.431C280.088 224.924 281.431 223.581 281.431 221.924V211.973C281.431 210.317 280.088 208.973 278.431 208.973ZM221.119 207.973C218.91 207.973 217.119 209.764 217.119 211.973V221.924C217.119 224.133 218.91 225.924 221.119 225.924H278.431C280.64 225.924 282.431 224.133 282.431 221.924V211.973C282.431 209.764 280.64 207.973 278.431 207.973H221.119Z" fill="black"/>
<path d="M236.12 215.957C236.097 215.728 236 215.55 235.828 215.423C235.655 215.296 235.421 215.233 235.126 215.233C234.925 215.233 234.756 215.261 234.617 215.318C234.479 215.373 234.373 215.45 234.299 215.548C234.227 215.647 234.191 215.758 234.191 215.883C234.187 215.987 234.209 216.078 234.256 216.156C234.306 216.234 234.373 216.301 234.458 216.358C234.543 216.413 234.642 216.461 234.754 216.503C234.865 216.542 234.985 216.577 235.112 216.605L235.634 216.73C235.888 216.787 236.121 216.862 236.333 216.957C236.545 217.052 236.729 217.168 236.884 217.307C237.04 217.445 237.16 217.608 237.245 217.795C237.332 217.983 237.377 218.198 237.379 218.44C237.377 218.796 237.286 219.105 237.106 219.366C236.928 219.626 236.67 219.827 236.333 219.971C235.998 220.113 235.594 220.184 235.12 220.184C234.65 220.184 234.241 220.112 233.893 219.969C233.546 219.825 233.275 219.612 233.08 219.329C232.887 219.045 232.786 218.694 232.776 218.275H233.967C233.98 218.47 234.036 218.633 234.134 218.764C234.235 218.893 234.368 218.99 234.535 219.057C234.703 219.121 234.894 219.153 235.106 219.153C235.314 219.153 235.495 219.123 235.649 219.062C235.804 219.002 235.924 218.917 236.009 218.809C236.095 218.702 236.137 218.577 236.137 218.437C236.137 218.307 236.098 218.197 236.021 218.108C235.945 218.019 235.833 217.943 235.685 217.88C235.54 217.818 235.361 217.761 235.149 217.71L234.515 217.551C234.024 217.432 233.637 217.245 233.353 216.991C233.069 216.737 232.928 216.396 232.93 215.966C232.928 215.613 233.022 215.306 233.211 215.042C233.402 214.779 233.665 214.574 233.998 214.426C234.331 214.278 234.71 214.204 235.134 214.204C235.566 214.204 235.943 214.278 236.265 214.426C236.589 214.574 236.841 214.779 237.021 215.042C237.201 215.306 237.293 215.611 237.299 215.957H236.12Z" fill="black"/>
<path d="M239.394 217.579V220.102H238.183V214.284H239.359V216.508H239.411C239.509 216.251 239.668 216.049 239.888 215.903C240.108 215.755 240.383 215.682 240.715 215.682C241.018 215.682 241.282 215.748 241.507 215.88C241.734 216.011 241.911 216.2 242.036 216.446C242.162 216.69 242.225 216.983 242.223 217.324V220.102H241.013V217.54C241.015 217.271 240.947 217.061 240.808 216.912C240.672 216.762 240.481 216.687 240.234 216.687C240.07 216.687 239.924 216.722 239.797 216.792C239.672 216.862 239.573 216.965 239.502 217.099C239.431 217.232 239.395 217.392 239.394 217.579Z" fill="black"/>
<path d="M245.147 220.187C244.706 220.187 244.324 220.094 244.002 219.906C243.682 219.717 243.435 219.453 243.261 219.116C243.087 218.777 242.999 218.384 242.999 217.937C242.999 217.487 243.087 217.093 243.261 216.755C243.435 216.416 243.682 216.153 244.002 215.966C244.324 215.776 244.706 215.682 245.147 215.682C245.588 215.682 245.969 215.776 246.289 215.966C246.611 216.153 246.859 216.416 247.033 216.755C247.208 217.093 247.295 217.487 247.295 217.937C247.295 218.384 247.208 218.777 247.033 219.116C246.859 219.453 246.611 219.717 246.289 219.906C245.969 220.094 245.588 220.187 245.147 220.187ZM245.153 219.25C245.354 219.25 245.521 219.193 245.656 219.079C245.79 218.964 245.891 218.807 245.96 218.608C246.03 218.409 246.065 218.183 246.065 217.929C246.065 217.675 246.03 217.449 245.96 217.25C245.891 217.051 245.79 216.894 245.656 216.778C245.521 216.663 245.354 216.605 245.153 216.605C244.95 216.605 244.78 216.663 244.641 216.778C244.505 216.894 244.402 217.051 244.332 217.25C244.264 217.449 244.229 217.675 244.229 217.929C244.229 218.183 244.264 218.409 244.332 218.608C244.402 218.807 244.505 218.964 244.641 219.079C244.78 219.193 244.95 219.25 245.153 219.25Z" fill="black"/>
<path d="M248.082 221.738V215.738H249.275V216.471H249.329C249.382 216.354 249.459 216.235 249.559 216.113C249.661 215.99 249.794 215.888 249.957 215.807C250.122 215.723 250.326 215.682 250.57 215.682C250.889 215.682 251.182 215.765 251.451 215.932C251.72 216.096 251.935 216.345 252.096 216.679C252.257 217.01 252.337 217.426 252.337 217.926C252.337 218.413 252.259 218.824 252.102 219.159C251.946 219.492 251.734 219.745 251.465 219.917C251.198 220.088 250.899 220.173 250.568 220.173C250.333 220.173 250.133 220.134 249.968 220.057C249.805 219.979 249.672 219.881 249.568 219.764C249.463 219.645 249.384 219.524 249.329 219.403H249.292V221.738H248.082ZM249.266 217.92C249.266 218.18 249.302 218.406 249.374 218.599C249.446 218.792 249.551 218.943 249.687 219.051C249.823 219.157 249.989 219.21 250.184 219.21C250.381 219.21 250.548 219.156 250.684 219.048C250.82 218.938 250.924 218.787 250.994 218.594C251.066 218.398 251.102 218.174 251.102 217.92C251.102 217.668 251.067 217.447 250.997 217.255C250.926 217.064 250.823 216.915 250.687 216.807C250.551 216.699 250.383 216.645 250.184 216.645C249.987 216.645 249.82 216.697 249.684 216.801C249.55 216.905 249.446 217.053 249.374 217.244C249.302 217.435 249.266 217.661 249.266 217.92Z" fill="black"/>
<path d="M259.885 214.284V220.102H258.823L256.291 216.44H256.249V220.102H255.019V214.284H256.098L258.609 217.943H258.661V214.284H259.885Z" fill="black"/>
<path d="M262.85 220.187C262.409 220.187 262.027 220.094 261.705 219.906C261.385 219.717 261.138 219.453 260.964 219.116C260.79 218.777 260.703 218.384 260.703 217.937C260.703 217.487 260.79 217.093 260.964 216.755C261.138 216.416 261.385 216.153 261.705 215.966C262.027 215.776 262.409 215.682 262.85 215.682C263.292 215.682 263.672 215.776 263.992 215.966C264.314 216.153 264.562 216.416 264.737 216.755C264.911 217.093 264.998 217.487 264.998 217.937C264.998 218.384 264.911 218.777 264.737 219.116C264.562 219.453 264.314 219.717 263.992 219.906C263.672 220.094 263.292 220.187 262.85 220.187ZM262.856 219.25C263.057 219.25 263.224 219.193 263.359 219.079C263.493 218.964 263.595 218.807 263.663 218.608C263.733 218.409 263.768 218.183 263.768 217.929C263.768 217.675 263.733 217.449 263.663 217.25C263.595 217.051 263.493 216.894 263.359 216.778C263.224 216.663 263.057 216.605 262.856 216.605C262.653 216.605 262.483 216.663 262.345 216.778C262.208 216.894 262.105 217.051 262.035 217.25C261.967 217.449 261.933 217.675 261.933 217.929C261.933 218.183 261.967 218.409 262.035 218.608C262.105 218.807 262.208 218.964 262.345 219.079C262.483 219.193 262.653 219.25 262.856 219.25Z" fill="black"/>
<path d="M266.536 220.102L265.349 215.738H266.573L267.249 218.67H267.289L267.994 215.738H269.195L269.911 218.653H269.948L270.613 215.738H271.835L270.65 220.102H269.369L268.619 217.358H268.565L267.815 220.102H266.536Z" fill="black"/>
<g filter="url(#filter2_d_488_422)">
<path d="M272.12 61C272.12 51.0589 280.179 43 290.12 43H465.515C475.456 43 483.515 51.0589 483.515 61V337.005C483.515 346.946 475.456 355.005 465.515 355.005H290.12C280.179 355.005 272.12 346.946 272.12 337.005V61Z" fill="white"/>
</g>
<path fill-rule="evenodd" clip-rule="evenodd" d="M450.911 60.9504C450.911 60.3982 451.359 59.9504 451.911 59.9504H463.961C464.513 59.9504 464.961 60.3982 464.961 60.9504C464.961 61.5027 464.513 61.9504 463.961 61.9504H451.911C451.359 61.9504 450.911 61.5027 450.911 60.9504Z" fill="black"/>
<path fill-rule="evenodd" clip-rule="evenodd" d="M450.911 65.4031C450.911 64.8508 451.359 64.4031 451.911 64.4031H463.961C464.513 64.4031 464.961 64.8508 464.961 65.4031C464.961 65.9554 464.513 66.4031 463.961 66.4031H451.911C451.359 66.4031 450.911 65.9554 450.911 65.4031Z" fill="black"/>
<path fill-rule="evenodd" clip-rule="evenodd" d="M450.911 69.8555C450.911 69.3032 451.359 68.8555 451.911 68.8555H463.961C464.513 68.8555 464.961 69.3032 464.961 69.8555C464.961 70.4078 464.513 70.8555 463.961 70.8555H451.911C451.359 70.8555 450.911 70.4078 450.911 69.8555Z" fill="black"/>
<g clip-path="url(#clip0_488_422)">
<path d="M398.755 227.133L396.813 223.193L394.465 225.334V216.634C394.465 216.455 394.513 216.281 394.604 216.129C394.695 215.978 394.825 215.856 394.979 215.777C395.134 215.698 395.306 215.665 395.478 215.682C395.65 215.699 395.813 215.765 395.95 215.873L402.38 221.614L399.32 221.965L401.237 225.852L398.755 227.133ZM397.093 221.661L399.162 225.852L399.989 225.425L397.887 221.167L400.17 220.905L395.368 216.615L395.387 223.218L397.093 221.661Z" fill="#5E5E5E"/>
</g>
<path fill-rule="evenodd" clip-rule="evenodd" d="M284.804 154.879V146.819H292.379V148.819H286.804V154.879H284.804ZM322.679 146.819H307.529V148.819H322.679V146.819ZM337.829 146.819V148.819H352.979V146.819H337.829ZM368.129 146.819V148.819H383.279V146.819H368.129ZM398.429 146.819V148.819H413.579V146.819H398.429ZM428.729 146.819V148.819H443.879V146.819H428.729ZM459.029 146.819V148.819H464.604V154.879H466.604V146.819H459.029ZM466.604 170.998H464.604V187.118H466.604V170.998ZM466.604 203.237H464.604V219.356H466.604V203.237ZM466.604 235.476H464.604V241.535H459.029V243.535H466.604V235.476ZM443.879 243.535V241.535H428.729V243.535H443.879ZM413.579 243.535V241.535H398.429V243.535H413.579ZM383.279 243.535V241.535H368.129V243.535H383.279ZM352.979 243.535V241.535H337.829V243.535H352.979ZM322.679 243.535V241.535H307.529V243.535H322.679ZM292.379 243.535V241.535H286.804V235.476H284.804V243.535H292.379ZM284.804 219.356H286.804V203.237H284.804V219.356ZM284.804 187.118H286.804V170.998H284.804V187.118Z" fill="#656565"/>
<path fill-rule="evenodd" clip-rule="evenodd" d="M357.963 194.904C357.963 192.695 359.754 190.904 361.963 190.904H388.916C391.125 190.904 392.916 192.695 392.916 194.904C392.916 197.113 391.125 198.904 388.916 198.904H361.963C359.754 198.904 357.963 197.113 357.963 194.904Z" fill="#656565"/>
<path fill-rule="evenodd" clip-rule="evenodd" d="M375.175 213.111C372.966 213.111 371.175 211.32 371.175 209.111V181.244C371.175 179.035 372.966 177.244 375.175 177.244C377.384 177.244 379.175 179.035 379.175 181.244V209.111C379.175 211.32 377.384 213.111 375.175 213.111Z" fill="#656565"/>
<g filter="url(#filter3_d_488_422)">
<path d="M403.713 97.4456C403.713 93.0273 407.295 89.4456 411.713 89.4456H550.56C554.979 89.4456 558.56 93.0273 558.56 97.4456V120.241C558.56 124.66 554.979 128.241 550.56 128.241H411.713C407.295 128.241 403.713 124.66 403.713 120.241V97.4456Z" fill="white"/>
<path d="M435.951 108.57C435.951 114.002 431.692 118.406 426.439 118.406C421.185 118.406 416.926 114.002 416.926 108.57C416.926 103.138 421.185 98.7349 426.439 98.7349C431.692 98.7349 435.951 103.138 435.951 108.57Z" fill="#DED0C2"/>
<path d="M466.604 108.57C466.604 114.002 462.345 118.406 457.091 118.406C451.837 118.406 447.578 114.002 447.578 108.57C447.578 103.138 451.837 98.7349 457.091 98.7349C462.345 98.7349 466.604 103.138 466.604 108.57Z" fill="#826BFF"/>
<path d="M493.028 108.57C493.028 114.002 488.769 118.406 483.515 118.406C478.261 118.406 474.002 114.002 474.002 108.57C474.002 103.138 478.261 98.7349 483.515 98.7349C488.769 98.7349 493.028 103.138 493.028 108.57Z" fill="#FFF2F2"/>
<path d="M519.452 108.57C519.452 114.002 515.193 118.406 509.94 118.406C504.686 118.406 500.427 114.002 500.427 108.57C500.427 103.138 504.686 98.7349 509.94 98.7349C515.193 98.7349 519.452 103.138 519.452 108.57Z" fill="#AF00CC"/>
<path d="M545.877 108.57C545.877 114.002 541.618 118.406 536.364 118.406C531.111 118.406 526.852 114.002 526.852 108.57C526.852 103.138 531.111 98.7349 536.364 98.7349C541.618 98.7349 545.877 103.138 545.877 108.57Z" fill="#FF5872"/>
<g clip-path="url(#clip1_488_422)">
<path d="M431.215 103.086C430.889 102.751 430.449 102.562 429.989 102.562C429.53 102.562 429.089 102.751 428.764 103.086L427.613 104.274C427.319 104.581 426.92 104.757 426.502 104.763C426.084 104.77 425.68 104.606 425.377 104.308L424.41 105.337L425.416 106.376L421.629 110.292C421.369 110.561 421.192 110.905 421.122 111.279C421.051 111.653 421.091 112.04 421.234 112.391L420.625 113.021L421.606 114.035L422.215 113.405C422.554 113.553 422.929 113.594 423.29 113.521C423.652 113.448 423.984 113.266 424.245 112.996L428.032 109.081L429.038 110.121L430.033 109.122C429.744 108.809 429.586 108.391 429.592 107.959C429.598 107.526 429.769 107.113 430.066 106.809L431.215 105.62C431.539 105.284 431.721 104.828 431.721 104.353C431.721 103.878 431.539 103.422 431.215 103.086ZM423.264 111.982C423.176 112.069 423.059 112.118 422.937 112.118C422.815 112.118 422.698 112.069 422.61 111.982C422.524 111.893 422.475 111.771 422.475 111.644C422.475 111.518 422.524 111.396 422.61 111.306L426.397 107.391L427.053 108.067L423.264 111.982ZM430.235 104.606L429.085 105.795C428.682 106.209 428.402 106.732 428.275 107.304L427.135 106.125C427.688 105.994 428.194 105.704 428.594 105.288L429.744 104.099C429.809 104.032 429.897 103.994 429.989 103.994C430.081 103.994 430.17 104.032 430.235 104.099C430.3 104.166 430.336 104.258 430.336 104.353C430.336 104.448 430.3 104.539 430.235 104.606Z" fill="black"/>
</g>
</g>
<g filter="url(#filter4_d_488_422)">
<path d="M172.236 60.2891C172.236 55.8708 175.818 52.2891 180.236 52.2891H280.942C285.36 52.2891 288.942 55.8708 288.942 60.2891V86.3633C288.942 90.7816 285.36 94.3633 280.942 94.3633H180.236C175.818 94.3633 172.236 90.7816 172.236 86.3633V60.2891Z" fill="white"/>
<g clip-path="url(#clip2_488_422)">
<path d="M246.329 68.6918L242.749 64.9907H237.179C236.619 64.9907 236.082 65.2207 235.686 65.6301C235.29 66.0395 235.068 66.5948 235.068 67.1738V79.5447H246.329V68.6918ZM236.476 78.0893V67.1738C236.476 66.9808 236.55 66.7957 236.682 66.6593C236.814 66.5228 236.993 66.4461 237.179 66.4461H242.106V69.3569H244.921V78.0893H236.476ZM249.144 71.54V82.4555H238.587V81.0001H247.737V70.0846L249.144 71.54Z" fill="black"/>
</g>
<path d="M185.289 73.3259C185.289 74.422 184.429 75.3106 183.369 75.3106C182.309 75.3106 181.45 74.422 181.45 73.3259C181.45 72.2299 182.309 71.3413 183.369 71.3413C184.429 71.3413 185.289 72.2299 185.289 73.3259Z" fill="black"/>
<path d="M189.896 73.3259C189.896 74.422 189.036 75.3106 187.976 75.3106C186.916 75.3106 186.057 74.422 186.057 73.3259C186.057 72.2299 186.916 71.3413 187.976 71.3413C189.036 71.3413 189.896 72.2299 189.896 73.3259Z" fill="black"/>
<path d="M194.502 73.3259C194.502 74.422 193.643 75.3106 192.583 75.3106C191.522 75.3106 190.663 74.422 190.663 73.3259C190.663 72.2299 191.522 71.3413 192.583 71.3413C193.643 71.3413 194.502 72.2299 194.502 73.3259Z" fill="black"/>
<g clip-path="url(#clip3_488_422)">
<path d="M218.723 66.3998L210.923 74.4653C210.625 74.7717 210.388 75.1362 210.228 75.5376C210.067 75.939 209.985 76.3694 209.986 76.8039V77.6923C209.986 77.8678 210.053 78.0361 210.173 78.1601C210.293 78.2842 210.456 78.3539 210.626 78.3539H211.485C211.905 78.3551 212.321 78.2701 212.71 78.1039C213.098 77.9377 213.45 77.6934 213.747 77.3854L221.548 69.3198C221.922 68.9323 222.132 68.4072 222.132 67.8598C222.132 67.3124 221.922 66.7873 221.548 66.3998C221.167 66.0239 220.662 65.8142 220.136 65.8142C219.61 65.8142 219.104 66.0239 218.723 66.3998ZM220.643 68.3844L212.842 76.45C212.481 76.8207 211.994 77.0294 211.485 77.0308H211.266V76.8039C211.267 76.278 211.469 75.7738 211.827 75.4008L219.628 67.3352C219.765 67.2002 219.947 67.1249 220.136 67.1249C220.325 67.1249 220.506 67.2002 220.643 67.3352C220.777 67.4745 220.853 67.6631 220.853 67.8598C220.853 68.0565 220.777 68.2451 220.643 68.3844Z" fill="black"/>
<path d="M221.503 71.7244C221.333 71.7244 221.17 71.7941 221.05 71.9182C220.93 72.0423 220.863 72.2105 220.863 72.386V75.7076H218.304C217.795 75.7076 217.306 75.9167 216.946 76.2889C216.586 76.6611 216.384 77.1659 216.384 77.6922V80.3384H209.986C209.477 80.3384 208.988 80.1293 208.629 79.7571C208.269 79.3849 208.066 78.8801 208.066 78.3538V69.0921C208.066 68.5658 208.269 68.061 208.629 67.6888C208.988 67.3166 209.477 67.1075 209.986 67.1075H215.771C215.941 67.1075 216.104 67.0378 216.224 66.9138C216.344 66.7897 216.411 66.6214 216.411 66.446C216.411 66.2705 216.344 66.1022 216.224 65.9782C216.104 65.8541 215.941 65.7844 215.771 65.7844H209.986C209.138 65.7855 208.325 66.1343 207.725 66.7544C207.125 67.3745 206.788 68.2152 206.787 69.0921V78.3538C206.788 79.2307 207.125 80.0714 207.725 80.6915C208.325 81.3116 209.138 81.6605 209.986 81.6615H217.243C217.664 81.6627 218.08 81.5778 218.469 81.4115C218.857 81.2453 219.209 81.0011 219.506 80.693L221.205 78.9346C221.503 78.6282 221.74 78.2638 221.901 77.8624C222.061 77.461 222.144 77.0306 222.143 76.5961V72.386C222.143 72.2105 222.075 72.0423 221.955 71.9182C221.835 71.7941 221.673 71.7244 221.503 71.7244ZM218.601 79.7576C218.344 80.0229 218.019 80.2065 217.664 80.2868V77.6922C217.664 77.5168 217.731 77.3485 217.851 77.2244C217.971 77.1004 218.134 77.0307 218.304 77.0307H220.815C220.736 77.3969 220.558 77.7325 220.303 77.9992L218.601 79.7576Z" fill="black"/>
</g>
<g clip-path="url(#clip4_488_422)">
<path d="M278 66.8429H275.422C275.229 65.8723 274.718 65.0002 273.975 64.3735C273.233 63.7469 272.304 63.4041 271.346 63.4028H269.682C268.724 63.4041 267.795 63.7469 267.053 64.3735C266.31 65.0002 265.8 65.8723 265.607 66.8429H263.028C262.807 66.8429 262.596 66.9335 262.44 67.0948C262.284 67.256 262.196 67.4748 262.196 67.7029C262.196 67.931 262.284 68.1497 262.44 68.311C262.596 68.4723 262.807 68.5629 263.028 68.5629H263.86V79.743C263.861 80.883 264.3 81.976 265.079 82.7821C265.859 83.5882 266.916 84.0417 268.019 84.043H273.01C274.112 84.0417 275.169 83.5882 275.949 82.7821C276.729 81.976 277.167 80.883 277.168 79.743V68.5629H278C278.221 68.5629 278.432 68.4723 278.588 68.311C278.744 68.1497 278.832 67.931 278.832 67.7029C278.832 67.4748 278.744 67.256 278.588 67.0948C278.432 66.9335 278.221 66.8429 278 66.8429ZM269.682 65.1228H271.346C271.862 65.1235 272.365 65.2892 272.786 65.5971C273.208 65.905 273.526 66.3402 273.699 66.8429H267.329C267.502 66.3402 267.821 65.905 268.242 65.5971C268.663 65.2892 269.166 65.1235 269.682 65.1228ZM275.505 79.743C275.505 80.4273 275.242 81.0835 274.774 81.5673C274.306 82.0512 273.671 82.323 273.01 82.323H268.019C267.357 82.323 266.722 82.0512 266.254 81.5673C265.786 81.0835 265.523 80.4273 265.523 79.743V68.5629H275.505V79.743Z" fill="black"/>
<path d="M268.85 78.883C269.071 78.883 269.283 78.7924 269.439 78.6311C269.594 78.4698 269.682 78.2511 269.682 78.023V72.8629C269.682 72.6348 269.594 72.4161 269.439 72.2548C269.283 72.0935 269.071 72.0029 268.85 72.0029C268.63 72.0029 268.418 72.0935 268.262 72.2548C268.106 72.4161 268.019 72.6348 268.019 72.8629V78.023C268.019 78.2511 268.106 78.4698 268.262 78.6311C268.418 78.7924 268.63 78.883 268.85 78.883Z" fill="black"/>
<path d="M272.177 78.883C272.398 78.883 272.61 78.7924 272.766 78.6311C272.922 78.4698 273.009 78.2511 273.009 78.023V72.8629C273.009 72.6348 272.922 72.4161 272.766 72.2548C272.61 72.0935 272.398 72.0029 272.177 72.0029C271.957 72.0029 271.745 72.0935 271.589 72.2548C271.433 72.4161 271.346 72.6348 271.346 72.8629V78.023C271.346 78.2511 271.433 78.4698 271.589 78.6311C271.745 78.7924 271.957 78.883 272.177 78.883Z" fill="black"/>
</g>
</g>
<g filter="url(#filter5_d_488_422)">
<path d="M74.0942 160.412C74.0942 155.994 77.676 152.412 82.0942 152.412H94.2032C98.6215 152.412 102.203 155.994 102.203 160.412V259.808C102.203 264.226 98.6215 267.808 94.2032 267.808H82.0942C77.676 267.808 74.0942 264.226 74.0942 259.808V160.412Z" fill="white" fill-opacity="0.3" shape-rendering="crispEdges"/>
</g>
<g clip-path="url(#clip5_488_422)">
<path d="M91.0424 220.767L88.5896 218.231H84.773C84.3892 218.231 84.0213 218.388 83.7499 218.669C83.4786 218.949 83.3262 219.33 83.3262 219.727V228.203H91.0424V220.767ZM84.2907 227.206V219.727C84.2907 219.594 84.3415 219.468 84.4319 219.374C84.5224 219.28 84.6451 219.228 84.773 219.228H88.1488V221.222H90.0778V227.206H84.2907ZM92.9714 222.718V230.198H85.7375V229.2H92.0069V221.721L92.9714 222.718Z" fill="black"/>
</g>
<path fill-rule="evenodd" clip-rule="evenodd" d="M85.5034 187.768C85.5034 187.216 85.9511 186.768 86.5034 186.768H89.7641C90.3164 186.768 90.7641 187.216 90.7641 187.768C90.7641 188.32 90.3164 188.768 89.7641 188.768H86.5034C85.9511 188.768 85.5034 188.32 85.5034 187.768Z" fill="black"/>
<path fill-rule="evenodd" clip-rule="evenodd" d="M88.1016 190.821C87.5493 190.821 87.1016 190.374 87.1016 189.821V185.793C87.1016 185.241 87.5493 184.793 88.1016 184.793C88.6538 184.793 89.1016 185.241 89.1016 185.793V189.821C89.1016 190.374 88.6538 190.821 88.1016 190.821Z" fill="black"/>
<path fill-rule="evenodd" clip-rule="evenodd" d="M83.3477 184.299V180.726H85.7669V182.726H85.3477V184.299H83.3477ZM93.0246 184.299V180.726H90.6054V182.726H91.0246V184.299H93.0246ZM93.0246 191.446H91.0246V193.019H90.6054V195.019H93.0246V191.446ZM85.7669 195.019V193.019H85.3477V191.446H83.3477V195.019H85.7669Z" fill="black"/>
<path d="M86.5496 171.661C86.5496 172.377 85.9876 172.958 85.2943 172.958C84.6011 172.958 84.0391 172.377 84.0391 171.661C84.0391 170.944 84.6011 170.363 85.2943 170.363C85.9876 170.363 86.5496 170.944 86.5496 171.661Z" fill="black"/>
<path d="M89.5618 171.661C89.5618 172.377 88.9998 172.958 88.3065 172.958C87.6133 172.958 87.0513 172.377 87.0513 171.661C87.0513 170.944 87.6133 170.363 88.3065 170.363C88.9998 170.363 89.5618 170.944 89.5618 171.661Z" fill="black"/>
<path d="M92.5745 171.661C92.5745 172.377 92.0125 172.958 91.3192 172.958C90.626 172.958 90.064 172.377 90.064 171.661C90.064 170.944 90.626 170.363 91.3192 170.363C92.0125 170.363 92.5745 170.944 92.5745 171.661Z" fill="black"/>
<g clip-path="url(#clip6_488_422)">
<path d="M90.7164 200.711L85.2567 206.356C85.0482 206.57 84.8828 206.825 84.7703 207.106C84.6578 207.387 84.6003 207.688 84.6011 207.993V208.614C84.6011 208.737 84.6483 208.855 84.7322 208.942C84.8162 209.029 84.9301 209.077 85.0489 209.077H85.6503C85.9444 209.078 86.2358 209.019 86.5075 208.902C86.7792 208.786 87.0259 208.615 87.2333 208.4L92.6931 202.755C92.9548 202.483 93.1018 202.116 93.1018 201.733C93.1018 201.35 92.9548 200.982 92.6931 200.711C92.4269 200.448 92.0729 200.301 91.7048 200.301C91.3366 200.301 90.9826 200.448 90.7164 200.711ZM92.0599 202.1L86.6001 207.745C86.3476 208.004 86.0063 208.15 85.6503 208.151H85.4967V207.993C85.4976 207.624 85.6389 207.272 85.8899 207.011L91.3496 201.366C91.4453 201.271 91.5725 201.218 91.7048 201.218C91.837 201.218 91.9642 201.271 92.0599 201.366C92.1539 201.463 92.2067 201.595 92.2067 201.733C92.2067 201.87 92.1539 202.002 92.0599 202.1Z" fill="black"/>
<path d="M92.6615 204.438C92.5428 204.438 92.4289 204.486 92.3449 204.573C92.2609 204.66 92.2137 204.778 92.2137 204.901V207.225H90.4225C90.0662 207.225 89.7245 207.372 89.4725 207.632C89.2206 207.893 89.079 208.246 89.079 208.614V210.466H84.6009C84.2446 210.466 83.9029 210.32 83.6509 210.06C83.399 209.799 83.2574 209.446 83.2574 209.077V202.595C83.2574 202.227 83.399 201.874 83.6509 201.613C83.9029 201.353 84.2446 201.206 84.6009 201.206H88.65C88.7688 201.206 88.8827 201.158 88.9667 201.071C89.0507 200.984 89.0978 200.866 89.0978 200.743C89.0978 200.62 89.0507 200.503 88.9667 200.416C88.8827 200.329 88.7688 200.28 88.65 200.28H84.6009C84.0073 200.281 83.4382 200.525 83.0184 200.959C82.5987 201.393 82.3625 201.982 82.3618 202.595V209.077C82.3625 209.691 82.5987 210.28 83.0184 210.714C83.4382 211.148 84.0073 211.392 84.6009 211.392H89.6804C89.9746 211.393 90.266 211.334 90.5378 211.218C90.8096 211.101 91.0564 210.93 91.2639 210.715L92.4533 209.484C92.6619 209.27 92.8273 209.014 92.9399 208.734C93.0525 208.453 93.1101 208.151 93.1094 207.847V204.901C93.1094 204.778 93.0622 204.66 92.9782 204.573C92.8942 204.486 92.7803 204.438 92.6615 204.438ZM90.6307 210.06C90.4507 210.246 90.2231 210.374 89.9747 210.43V208.614C89.9747 208.492 90.0218 208.374 90.1058 208.287C90.1898 208.2 90.3037 208.151 90.4225 208.151H92.1801C92.1247 208.408 92.0006 208.643 91.8219 208.829L90.6307 210.06Z" fill="black"/>
</g>
<g clip-path="url(#clip7_488_422)">
<path d="M93.1092 239.315H91.4006C91.2727 238.672 90.9342 238.094 90.4423 237.679C89.9503 237.264 89.335 237.037 88.6999 237.036H87.5976C86.9626 237.037 86.3472 237.264 85.8553 237.679C85.3633 238.094 85.0249 238.672 84.8969 239.315H83.1884C83.0422 239.315 82.902 239.375 82.7986 239.482C82.6953 239.589 82.6372 239.734 82.6372 239.885C82.6372 240.036 82.6953 240.181 82.7986 240.288C82.902 240.395 83.0422 240.455 83.1884 240.455H83.7395V247.863C83.7404 248.619 84.031 249.343 84.5476 249.877C85.0643 250.411 85.7647 250.712 86.4953 250.712H89.8022C90.5328 250.712 91.2333 250.411 91.7499 249.877C92.2665 249.343 92.5571 248.619 92.558 247.863V240.455H93.1092C93.2553 240.455 93.3955 240.395 93.4989 240.288C93.6023 240.181 93.6603 240.036 93.6603 239.885C93.6603 239.734 93.6023 239.589 93.4989 239.482C93.3955 239.375 93.2553 239.315 93.1092 239.315ZM87.5976 238.176H88.6999C89.0418 238.176 89.3752 238.286 89.6543 238.49C89.9335 238.694 90.1447 238.982 90.2591 239.315H86.0384C86.1528 238.982 86.3641 238.694 86.6432 238.49C86.9224 238.286 87.2557 238.176 87.5976 238.176ZM91.4557 247.863C91.4557 248.317 91.2815 248.751 90.9714 249.072C90.6613 249.393 90.2408 249.573 89.8022 249.573H86.4953C86.0568 249.573 85.6362 249.393 85.3261 249.072C85.016 248.751 84.8418 248.317 84.8418 247.863V240.455H91.4557V247.863Z" fill="black"/>
<path d="M87.0463 247.293C87.1924 247.293 87.3326 247.233 87.436 247.126C87.5394 247.019 87.5974 246.875 87.5974 246.723V243.304C87.5974 243.153 87.5394 243.008 87.436 242.901C87.3326 242.794 87.1924 242.734 87.0463 242.734C86.9001 242.734 86.7599 242.794 86.6565 242.901C86.5532 243.008 86.4951 243.153 86.4951 243.304V246.723C86.4951 246.875 86.5532 247.019 86.6565 247.126C86.7599 247.233 86.9001 247.293 87.0463 247.293Z" fill="black"/>
<path d="M89.2509 247.293C89.397 247.293 89.5372 247.233 89.6406 247.126C89.744 247.019 89.802 246.875 89.802 246.723V243.304C89.802 243.153 89.744 243.008 89.6406 242.901C89.5372 242.794 89.397 242.734 89.2509 242.734C89.1047 242.734 88.9645 242.794 88.8611 242.901C88.7578 243.008 88.6997 243.153 88.6997 243.304V246.723C88.6997 246.875 88.7578 247.019 88.8611 247.126C88.9645 247.233 89.1047 247.293 89.2509 247.293Z" fill="black"/>
</g>
<defs>
<filter id="filter0_f_488_422" x="79" y="14" width="507" height="378" filterUnits="userSpaceOnUse" color-interpolation-filters="sRGB">
<feFlood flood-opacity="0" result="BackgroundImageFix"/>
<feBlend mode="normal" in="SourceGraphic" in2="BackgroundImageFix" result="shape"/>
<feGaussianBlur stdDeviation="25" result="effect1_foregroundBlur_488_422"/>
</filter>
<filter id="filter1_d_488_422" x="54" y="89.8516" width="360.134" height="228.003" filterUnits="userSpaceOnUse" color-interpolation-filters="sRGB">
<feFlood flood-opacity="0" result="BackgroundImageFix"/>
<feColorMatrix in="SourceAlpha" type="matrix" values="0 0 0 0 0 0 0 0 0 0 0 0 0 0 0 0 0 0 127 0" result="hardAlpha"/>
<feOffset dy="4"/>
<feGaussianBlur stdDeviation="5.5"/>
<feComposite in2="hardAlpha" operator="out"/>
<feColorMatrix type="matrix" values="0 0 0 0 0 0 0 0 0 0 0 0 0 0 0 0 0 0 0.1 0"/>
<feBlend mode="normal" in2="BackgroundImageFix" result="effect1_dropShadow_488_422"/>
<feBlend mode="normal" in="SourceGraphic" in2="effect1_dropShadow_488_422" result="shape"/>
</filter>
<filter id="filter2_d_488_422" x="260.12" y="27" width="243.395" height="344.005" filterUnits="userSpaceOnUse" color-interpolation-filters="sRGB">
<feFlood flood-opacity="0" result="BackgroundImageFix"/>
<feColorMatrix in="SourceAlpha" type="matrix" values="0 0 0 0 0 0 0 0 0 0 0 0 0 0 0 0 0 0 127 0" result="hardAlpha"/>
<feOffset dx="4"/>
<feGaussianBlur stdDeviation="8"/>
<feComposite in2="hardAlpha" operator="out"/>
<feColorMatrix type="matrix" values="0 0 0 0 0 0 0 0 0 0 0 0 0 0 0 0 0 0 0.1 0"/>
<feBlend mode="normal" in2="BackgroundImageFix" result="effect1_dropShadow_488_422"/>
<feBlend mode="normal" in="SourceGraphic" in2="effect1_dropShadow_488_422" result="shape"/>
</filter>
<filter id="filter3_d_488_422" x="395.713" y="85.4456" width="170.847" height="54.7957" filterUnits="userSpaceOnUse" color-interpolation-filters="sRGB">
<feFlood flood-opacity="0" result="BackgroundImageFix"/>
<feColorMatrix in="SourceAlpha" type="matrix" values="0 0 0 0 0 0 0 0 0 0 0 0 0 0 0 0 0 0 127 0" result="hardAlpha"/>
<feOffset dy="4"/>
<feGaussianBlur stdDeviation="4"/>
<feComposite in2="hardAlpha" operator="out"/>
<feColorMatrix type="matrix" values="0 0 0 0 0 0 0 0 0 0 0 0 0 0 0 0 0 0 0.1 0"/>
<feBlend mode="normal" in2="BackgroundImageFix" result="effect1_dropShadow_488_422"/>
<feBlend mode="normal" in="SourceGraphic" in2="effect1_dropShadow_488_422" result="shape"/>
</filter>
<filter id="filter4_d_488_422" x="145.236" y="29.2891" width="170.706" height="96.0742" filterUnits="userSpaceOnUse" color-interpolation-filters="sRGB">
<feFlood flood-opacity="0" result="BackgroundImageFix"/>
<feColorMatrix in="SourceAlpha" type="matrix" values="0 0 0 0 0 0 0 0 0 0 0 0 0 0 0 0 0 0 127 0" result="hardAlpha"/>
<feOffset dy="4"/>
<feGaussianBlur stdDeviation="13.5"/>
<feComposite in2="hardAlpha" operator="out"/>
<feColorMatrix type="matrix" values="0 0 0 0 0 0 0 0 0 0 0 0 0 0 0 0 0 0 0.1 0"/>
<feBlend mode="normal" in2="BackgroundImageFix" result="effect1_dropShadow_488_422"/>
<feBlend mode="normal" in="SourceGraphic" in2="effect1_dropShadow_488_422" result="shape"/>
</filter>
<filter id="filter5_d_488_422" x="70.0942" y="152.412" width="36.1089" height="123.396" filterUnits="userSpaceOnUse" color-interpolation-filters="sRGB">
<feFlood flood-opacity="0" result="BackgroundImageFix"/>
<feColorMatrix in="SourceAlpha" type="matrix" values="0 0 0 0 0 0 0 0 0 0 0 0 0 0 0 0 0 0 127 0" result="hardAlpha"/>
<feOffset dy="4"/>
<feGaussianBlur stdDeviation="2"/>
<feComposite in2="hardAlpha" operator="out"/>
<feColorMatrix type="matrix" values="0 0 0 0 0 0 0 0 0 0 0 0 0 0 0 0 0 0 0.25 0"/>
<feBlend mode="normal" in2="BackgroundImageFix" result="effect1_dropShadow_488_422"/>
<feBlend mode="normal" in="SourceGraphic" in2="effect1_dropShadow_488_422" result="shape"/>
</filter>
<clipPath id="clip0_488_422">
<rect width="11.0982" height="11.4748" fill="white" transform="translate(392.615 215.668)"/>
</clipPath>
<clipPath id="clip1_488_422">
<rect width="11.0982" height="11.4748" fill="white" transform="translate(420.625 102.56)"/>
</clipPath>
<clipPath id="clip2_488_422">
<rect width="16.8917" height="17.4648" fill="white" transform="translate(233.66 64.9907)"/>
</clipPath>
<clipPath id="clip3_488_422">
<rect width="15.3561" height="15.8771" fill="white" transform="translate(206.787 65.7844)"/>
</clipPath>
<clipPath id="clip4_488_422">
<rect width="19.9629" height="20.6402" fill="white" transform="translate(260.533 63.4028)"/>
</clipPath>
<clipPath id="clip5_488_422">
<rect width="11.5743" height="11.967" fill="white" transform="translate(82.3618 218.231)"/>
</clipPath>
<clipPath id="clip6_488_422">
<rect width="10.7475" height="11.1122" fill="white" transform="translate(82.3618 200.28)"/>
</clipPath>
<clipPath id="clip7_488_422">
<rect width="13.2277" height="13.6765" fill="white" transform="translate(81.5347 237.036)"/>
</clipPath>
</defs>
</svg>
