<svg width="1650" height="471" viewBox="0 0 1650 471" fill="none" xmlns="http://www.w3.org/2000/svg">
<path d="M222.168 179.499C222.168 179.499 239.013 74.1707 216.201 29.343C204.61 6.54033 179.93 3.02364 156.582 14.2567C143.703 20.4555 131.265 31.1331 121.661 45.5386C29.5922 183.63 12.3583 234.754 12.3583 234.754C12.3583 234.754 115.375 111.176 169.799 104.384C213.99 98.8363 222.2 179.535 222.2 179.535L222.168 179.499Z" fill="#FF5872"/>
<path d="M198.575 351.353C198.575 351.353 282.691 289.173 297.293 240.837C304.73 216.259 289.692 195.767 265.484 186.676C252.129 181.663 236.015 180.138 219.35 183.316C59.5894 213.78 12.3574 237.353 12.3574 237.353C12.3574 237.353 169.909 225.137 213.043 260.04C248.09 288.357 198.573 351.402 198.573 351.402L198.575 351.353Z" fill="#E20BC3"/>
<path d="M64.0752 457.828C64.0752 457.828 166.025 476.127 209.677 452.987C231.882 441.23 235.507 415.801 224.823 391.619C218.927 378.279 208.686 365.355 194.806 355.322C61.7566 259.137 12.3512 240.912 12.3512 240.912C12.3512 240.912 131.237 348.263 137.344 404.464C142.335 450.098 64.04 457.861 64.04 457.861L64.0752 457.828Z" fill="#883FFF"/>
<path d="M506.795 370.689C494.751 370.689 483.936 368.283 474.351 363.471C465.011 358.406 457.023 351.568 450.386 342.957C443.996 334.345 439.08 324.468 435.639 313.324C432.444 301.927 430.846 289.771 430.846 276.854C431.092 263.937 432.935 251.907 436.377 240.764C439.818 229.367 444.733 219.489 451.124 211.131C457.76 202.52 465.748 195.809 475.088 190.997C484.428 186.185 494.997 183.779 506.795 183.779C518.101 183.779 528.67 186.185 538.501 190.997C548.579 195.809 557.427 202.52 565.046 211.131C572.912 219.489 579.056 229.367 583.48 240.764C587.905 251.907 590.117 263.811 590.117 276.474C590.117 289.644 587.905 302.054 583.48 313.704C579.056 325.101 573.034 335.105 565.415 343.716C557.796 352.074 548.947 358.659 538.87 363.471C528.793 368.283 518.101 370.689 506.795 370.689ZM500.896 326.241C509.498 326.241 517.241 324.215 524.123 320.163C531.005 315.857 536.412 310.032 540.345 302.687C544.523 295.342 546.612 286.985 546.612 277.614C546.612 267.99 544.523 259.505 540.345 252.161C536.412 244.563 531.005 238.737 524.123 234.685C517.241 230.38 509.498 228.227 500.896 228.227C492.539 228.227 484.92 230.38 478.038 234.685C471.155 238.991 465.625 244.816 461.447 252.161C457.514 259.505 455.548 267.99 455.548 277.614C455.548 286.985 457.514 295.342 461.447 302.687C465.625 310.032 471.155 315.857 478.038 320.163C484.92 324.215 492.539 326.241 500.896 326.241ZM432.69 371.069C426.053 371.069 421.138 369.929 417.942 367.65C414.747 365.624 412.781 362.965 412.044 359.672C411.306 356.126 410.938 352.201 410.938 347.895V121.475C410.938 117.17 411.306 113.371 412.044 110.078C412.781 106.532 414.747 103.747 417.942 101.72C421.138 99.6943 426.053 98.6812 432.69 98.6812C439.572 98.6812 444.488 99.6943 447.437 101.72C450.386 103.747 452.23 106.532 452.967 110.078C453.705 113.624 454.073 117.423 454.073 121.475V355.493C453.09 361.065 451.001 364.991 447.806 367.27C444.856 369.803 439.818 371.069 432.69 371.069Z" fill="white"/>
<path d="M686.8 371.069C677.706 371.069 669.595 370.436 662.468 369.17C655.585 367.903 649.564 365.75 644.402 362.711C639.486 359.672 635.431 355.62 632.236 350.555C629.04 345.236 626.583 338.778 624.862 331.18C623.387 323.582 622.65 314.464 622.65 303.827V120.715C622.65 116.41 623.019 112.611 623.756 109.318C624.739 105.773 626.705 102.987 629.655 100.961C632.85 98.6812 637.889 97.5415 644.771 97.5415C651.653 97.5415 656.569 98.5546 659.518 100.581C662.713 102.607 664.68 105.393 665.417 108.938C666.4 112.231 666.892 116.03 666.892 120.335V301.927C666.892 306.739 667.137 310.792 667.629 314.084C668.366 317.123 669.472 319.656 670.947 321.682C672.668 323.455 674.757 324.721 677.215 325.481C679.918 326.241 683.114 326.621 686.8 326.621C689.996 326.621 692.822 327.001 695.28 327.761C697.984 328.52 700.073 330.42 701.548 333.459C703.268 336.498 704.129 341.437 704.129 348.275C704.129 355.367 703.268 360.559 701.548 363.851C700.073 367.143 697.984 369.17 695.28 369.929C692.576 370.689 689.75 371.069 686.8 371.069Z" fill="white"/>
<path d="M881.839 370.309C874.711 370.309 869.426 368.916 865.985 366.13C862.544 363.344 860.824 359.545 860.824 354.733L863.405 342.197C861.438 345.489 858.12 349.415 853.45 353.974C848.78 358.279 842.636 362.205 835.016 365.751C827.397 369.043 818.18 370.689 807.365 370.689C795.813 370.689 784.876 368.283 774.552 363.471C764.475 358.406 755.504 351.568 747.639 342.957C740.019 334.092 733.875 324.088 729.205 312.944C724.78 301.548 722.568 289.391 722.568 276.474C722.568 264.064 724.78 252.414 729.205 241.523C733.875 230.38 740.142 220.502 748.007 211.891C755.873 203.28 764.844 196.569 774.921 191.757C785.244 186.691 796.059 184.159 807.365 184.159C817.442 184.159 825.922 185.552 832.804 188.337C839.932 191.123 845.954 194.669 850.869 198.975C855.785 203.027 859.841 207.332 863.036 211.891L860.824 200.874C860.824 195.302 862.544 191.123 865.985 188.337C869.426 185.298 874.834 183.779 882.207 183.779C889.089 183.779 894.005 184.918 896.955 187.198C899.904 189.224 901.748 192.136 902.485 195.935C903.222 199.481 903.591 203.533 903.591 208.092V347.135C903.591 351.441 903.222 355.367 902.485 358.912C901.748 362.458 899.781 365.244 896.586 367.27C893.637 369.296 888.721 370.309 881.839 370.309ZM814.001 326.241C822.358 326.241 829.855 324.088 836.491 319.783C843.127 315.477 848.412 309.652 852.344 302.307C856.523 294.709 858.612 286.352 858.612 277.234C858.612 267.357 856.523 258.745 852.344 251.401C848.166 244.056 842.636 238.358 835.754 234.305C829.117 230 821.621 227.847 813.264 227.847C804.17 227.847 796.059 230.126 788.931 234.685C781.803 238.991 776.15 244.942 771.972 252.54C768.039 259.885 766.073 268.243 766.073 277.614C766.073 286.731 768.162 294.963 772.34 302.307C776.519 309.652 782.172 315.477 789.3 319.783C796.673 324.088 804.907 326.241 814.001 326.241Z" fill="white"/>
<path d="M962.335 370.689C955.699 370.689 950.783 369.549 947.588 367.27C944.638 365.244 942.795 362.585 942.058 359.292C941.32 355.746 940.952 351.821 940.952 347.515V205.433C940.952 201.381 941.32 197.708 942.058 194.416C942.795 191.123 944.761 188.591 947.957 186.818C951.152 184.792 956.068 183.779 962.704 183.779C968.603 183.779 973.027 184.538 975.976 186.058C978.926 187.578 980.892 189.477 981.875 191.757C982.858 194.036 983.35 196.315 983.35 198.595C983.596 200.874 983.842 202.647 984.087 203.913L982.613 216.07C984.087 212.018 986.545 208.092 989.986 204.293C993.427 200.494 997.606 197.075 1002.52 194.036C1007.44 190.744 1012.72 188.211 1018.37 186.438C1024.27 184.412 1030.3 183.399 1036.44 183.399C1047.99 183.399 1058.32 185.552 1067.41 189.857C1076.5 194.163 1084.25 200.241 1090.64 208.092C1097.27 215.943 1102.31 225.314 1105.75 236.205C1109.19 246.842 1110.91 258.872 1110.91 272.295V347.895C1110.91 352.201 1110.42 356.126 1109.44 359.672C1108.7 362.965 1106.86 365.624 1103.91 367.65C1100.96 369.676 1095.92 370.689 1088.79 370.689C1081.91 370.689 1076.87 369.549 1073.68 367.27C1070.48 365.244 1068.52 362.585 1067.78 359.292C1067.04 355.746 1066.67 351.821 1066.67 347.515V271.915C1066.67 262.798 1065.07 254.947 1061.88 248.362C1058.93 241.777 1054.51 236.711 1048.61 233.166C1042.95 229.62 1035.7 227.847 1026.85 227.847C1018.25 227.847 1010.76 229.747 1004.36 233.545C997.974 237.091 993.059 242.157 989.618 248.741C986.177 255.326 984.456 263.051 984.456 271.915V347.895C984.456 352.201 984.087 356.126 983.35 359.672C982.613 362.965 980.646 365.624 977.451 367.65C974.502 369.676 969.463 370.689 962.335 370.689Z" fill="white"/>
<path d="M1295.1 189.097C1299.77 193.403 1302.72 197.202 1303.94 200.494C1305.42 203.787 1305.42 207.206 1303.94 210.752C1302.72 214.044 1300.01 218.096 1295.83 222.908L1178.96 362.331C1174.78 366.89 1171.1 369.929 1167.9 371.449C1164.71 373.222 1161.51 373.475 1158.32 372.209C1155.37 370.942 1151.8 368.536 1147.62 364.991C1143.45 360.685 1140.62 357.013 1139.14 353.974C1137.67 350.681 1137.67 347.262 1139.14 343.716C1140.86 340.171 1143.69 336.118 1147.62 331.56L1264.5 192.136C1270.64 185.298 1275.68 181.626 1279.61 181.119C1283.79 180.613 1288.95 183.272 1295.1 189.097ZM1147.99 189.097C1152.17 185.298 1155.73 182.892 1158.68 181.879C1161.88 180.866 1164.95 181.246 1167.9 183.019C1171.1 184.538 1174.66 187.578 1178.59 192.136L1295.46 331.56C1299.64 336.118 1302.47 340.171 1303.94 343.716C1305.42 347.262 1305.54 350.681 1304.31 353.974C1303.08 357.013 1300.13 360.685 1295.46 364.991C1291.29 368.79 1287.6 371.196 1284.4 372.209C1281.45 373.475 1278.38 373.222 1275.19 371.449C1272.24 369.929 1268.55 366.89 1264.13 362.331L1147.25 222.908C1143.32 218.35 1140.62 214.297 1139.14 210.752C1137.67 207.206 1137.67 203.787 1139.14 200.494C1140.62 196.949 1143.57 193.15 1147.99 189.097Z" fill="white"/>
<path d="M1415.01 373.348C1399.04 373.348 1385.03 370.689 1372.98 365.371C1361.19 360.052 1351.23 352.834 1343.12 343.716C1335.25 334.345 1329.23 323.962 1325.05 312.565C1321.12 300.914 1319.16 288.884 1319.16 276.474C1319.16 258.239 1323.21 242.03 1331.32 227.847C1339.43 213.664 1350.62 202.52 1364.87 194.416C1379.37 186.311 1395.96 182.259 1414.64 182.259C1427.92 182.259 1439.59 184.412 1449.67 188.717C1459.75 193.023 1468.1 198.721 1474.74 205.813C1481.62 212.651 1486.78 220.249 1490.22 228.607C1493.91 236.965 1495.75 245.069 1495.75 252.92C1495.75 266.343 1492.56 276.094 1486.17 282.173C1480.02 288.251 1472.28 291.29 1462.94 291.29H1365.61C1365.85 299.901 1368.44 307.373 1373.35 313.704C1378.51 320.036 1384.9 324.975 1392.52 328.52C1400.39 331.813 1408.38 333.459 1416.49 333.459C1422.63 333.459 1428.04 333.079 1432.71 332.319C1437.63 331.56 1441.8 330.673 1445.24 329.66C1448.69 328.394 1451.63 327.127 1454.09 325.861C1456.8 324.595 1459.25 323.455 1461.47 322.442C1463.68 321.429 1465.77 320.796 1467.73 320.542C1470.44 320.289 1473.14 320.922 1475.84 322.442C1478.55 323.962 1480.76 326.621 1482.48 330.42C1483.96 332.953 1484.94 335.359 1485.43 337.638C1486.17 339.664 1486.54 341.69 1486.54 343.716C1486.54 348.782 1483.59 353.594 1477.69 358.153C1471.79 362.458 1463.43 366.004 1452.62 368.79C1442.05 371.829 1429.51 373.348 1415.01 373.348ZM1365.61 264.317H1441.19C1445.37 264.317 1448.56 263.684 1450.77 262.418C1452.99 260.898 1454.09 257.859 1454.09 253.3C1454.09 247.475 1452.37 242.283 1448.93 237.724C1445.49 232.912 1440.82 229.24 1434.92 226.707C1429.02 223.921 1422.14 222.528 1414.28 222.528C1405.18 222.528 1396.95 224.428 1389.57 228.227C1382.2 231.773 1376.3 236.711 1371.88 243.043C1367.7 249.375 1365.61 256.466 1365.61 264.317Z" fill="white"/>
<path d="M1547.76 371.069C1541.12 371.069 1536.21 369.929 1533.01 367.65C1530.06 365.624 1528.22 362.838 1527.48 359.292C1526.75 355.746 1526.38 351.821 1526.38 347.515V206.573C1526.38 202.014 1526.75 198.088 1527.48 194.796C1528.22 191.25 1530.06 188.591 1533.01 186.818C1536.21 184.792 1541.25 183.779 1548.13 183.779C1554.77 183.779 1559.56 184.665 1562.51 186.438C1565.7 188.211 1567.67 190.49 1568.41 193.276C1569.39 195.809 1569.88 198.341 1569.88 200.874L1566.93 207.712C1568.16 205.686 1569.88 203.28 1572.09 200.494C1574.31 197.455 1577.26 194.542 1580.94 191.757C1584.63 188.717 1589.05 186.311 1594.21 184.538C1599.38 182.512 1605.52 181.499 1612.65 181.499C1615.6 181.499 1618.67 181.879 1621.87 182.639C1625.31 183.146 1628.63 184.032 1631.82 185.298C1635.26 186.311 1638.33 187.704 1641.04 189.477C1643.74 191.25 1645.83 193.403 1647.3 195.935C1648.78 198.215 1649.52 200.874 1649.52 203.913C1649.52 212.018 1647.55 218.856 1643.62 224.428C1639.69 230 1635.02 232.786 1629.61 232.786C1625.92 232.786 1623.22 232.406 1621.5 231.646C1619.78 230.886 1618.3 230 1617.07 228.987C1616.09 227.974 1614.49 227.087 1612.28 226.327C1610.31 225.568 1607.12 225.188 1602.69 225.188C1599.01 225.188 1595.2 225.821 1591.27 227.087C1587.58 228.354 1584.14 230.253 1580.94 232.786C1577.75 235.318 1575.17 238.611 1573.2 242.663C1571.23 246.462 1570.25 250.894 1570.25 255.96V348.275C1570.25 352.581 1569.88 356.506 1569.14 360.052C1568.41 363.344 1566.44 366.004 1563.25 368.03C1560.05 370.056 1554.89 371.069 1547.76 371.069Z" fill="white"/>
</svg>
