<svg width="36" height="22" viewBox="0 0 36 22" fill="none" xmlns="http://www.w3.org/2000/svg">
<path d="M22.5347 0.514058C21.1724 0.437261 19.8056 0.609393 18.4434 0.536568C17.054 0.462419 15.6947 0.134044 14.3084 0.0294412C12.9205 -0.075162 11.4256 0.0771084 10.3391 0.842433C11.5356 1.08739 12.6703 1.55877 13.6453 2.21551C12.1022 2.48695 10.5049 2.3519 8.93767 2.48166C7.37047 2.61142 5.71134 3.08412 4.81924 4.22416C6.34726 3.91432 8.06365 4.56313 8.8578 5.75216C7.51212 6.87499 5.68271 7.53968 3.82617 7.57808C4.19688 8.99221 5.93436 9.73105 7.48951 10.2196C9.04466 10.7082 10.8048 11.2895 11.4196 12.6361C10.7972 12.7314 10.1764 12.8254 9.55401 12.9208C10.8349 13.7907 11.831 14.936 12.8647 16.0311C13.897 17.1274 15.0106 18.2079 16.4331 18.8871C17.8557 19.5664 19.6565 19.7849 21.088 19.1215L31.4331 6.86837C30.3466 3.41514 26.6034 0.741802 22.5347 0.514058Z" fill="#933EFE"/>
<path d="M33.0854 13.1612C34.3609 8.2797 30.8911 3.41394 25.3356 2.29324C19.78 1.17253 14.2423 4.22127 12.9669 9.10278C11.6914 13.9843 15.1612 18.85 20.7167 19.9707C26.2723 21.0914 31.8099 18.0427 33.0854 13.1612Z" fill="#F5F5F5"/>
<path d="M32.4971 10.9135C32.4836 8.69568 31.4724 6.68571 29.8374 5.212C28.1843 3.7224 25.8923 2.7823 23.3501 2.73198C23.2778 2.73066 23.2054 2.72668 23.1331 2.72668C20.4583 2.72668 18.0487 3.71313 16.3414 5.29277C14.7546 6.76119 13.7781 8.74335 13.769 10.9268C13.769 10.936 13.769 10.9453 13.769 10.9546C13.769 13.1989 14.7922 15.2314 16.4499 16.717L18.9981 14.2953C18.0623 13.4227 17.4866 12.2482 17.4866 10.9546C17.4866 10.944 17.4866 10.9334 17.4866 10.9228C17.4957 9.68081 18.0336 8.54739 18.9137 7.69202C18.9152 7.6907 18.9167 7.68805 18.9182 7.68673C19.9324 6.70293 21.3971 6.08458 23.0261 6.08458C23.1256 6.08458 23.225 6.08723 23.323 6.0912C24.7907 6.15873 26.1048 6.72941 27.0511 7.60861C27.9794 8.47191 28.5535 9.63182 28.5656 10.9109C28.5656 10.9255 28.5656 10.9387 28.5656 10.9533C28.5656 12.2985 27.9447 13.518 26.9396 14.3985L29.7274 16.7912C31.4348 15.3002 32.4941 13.236 32.4941 10.9533C32.4941 10.9387 32.4941 10.9255 32.4941 10.9109L32.4971 10.9135Z" fill="#933EFE"/>
<path d="M18.9197 7.68813C18.2069 7.01946 16.926 5.82248 16.3413 5.29285L18.9151 7.6921C18.9151 7.6921 18.9182 7.68813 18.9197 7.6868V7.68813Z" fill="#933EFE"/>
<g opacity="0.6">
<path d="M28.5696 10.9559C28.5696 12.3012 27.9487 13.5207 26.9436 14.4012L29.7314 16.7939C31.4388 15.3029 32.4981 13.2387 32.4981 10.9559C32.4981 10.9414 32.4981 10.9281 32.4981 10.9136H28.5696C28.5696 10.9281 28.5696 10.9414 28.5696 10.9559Z" fill="black"/>
</g>
<g opacity="0.5">
<path d="M28.5684 10.9134H32.497C32.4834 8.6956 31.4723 6.68563 29.8373 5.21191L27.054 7.61117C27.9822 8.47447 28.5564 9.63438 28.5684 10.9134Z" fill="black"/>
</g>
<g opacity="0.4">
<path d="M23.3242 6.0938C24.792 6.16133 26.106 6.73201 27.0524 7.61121L29.8357 5.21195C28.1826 3.72235 25.8905 2.78225 23.3483 2.73193L23.3242 6.0938Z" fill="black"/>
</g>
<g opacity="0.3">
<path d="M23.0273 6.08723C23.1268 6.08723 23.2263 6.08987 23.3242 6.09385L23.3483 2.73198C23.276 2.73066 23.2037 2.72668 23.1313 2.72668C20.4565 2.72668 18.0469 3.71313 16.3396 5.29277C16.9243 5.82241 18.2052 7.01939 18.918 7.68805C19.9321 6.70425 21.3969 6.0859 23.0258 6.0859L23.0273 6.08723Z" fill="black"/>
</g>
<g opacity="0.2">
<path d="M17.4864 10.9241C17.4955 9.6821 18.0334 8.54868 18.9135 7.69332L16.3397 5.29407C14.7529 6.76248 13.7764 8.74465 13.7673 10.9281C14.4831 10.9387 16.204 10.932 17.4864 10.9241Z" fill="black"/>
</g>
<path d="M33.3485 11.1332C33.3485 11.1332 33.3455 11.0829 33.3425 10.9863C33.341 10.9373 33.3395 10.8777 33.3365 10.8049C33.335 10.7334 33.332 10.6486 33.3214 10.5546C33.3124 10.4606 33.3033 10.3547 33.2928 10.2381C33.2792 10.1216 33.2581 9.99451 33.2385 9.85681C33.1948 9.58272 33.127 9.26759 33.0291 8.91803C32.9236 8.56979 32.797 8.18448 32.6056 7.77931C32.4188 7.37282 32.1897 6.93984 31.8883 6.50289C31.2916 5.62634 30.4357 4.71007 29.2693 3.92753C28.6891 3.5356 28.0276 3.18339 27.2997 2.89342C26.5719 2.60344 25.7777 2.3704 24.9293 2.23534C24.0824 2.09764 23.1873 2.04335 22.2726 2.10691C21.8145 2.13074 21.3534 2.19562 20.8923 2.27639C20.4312 2.36246 19.9715 2.47898 19.5149 2.62198C19.0614 2.7716 18.6108 2.94241 18.1738 3.14897C17.7383 3.35817 17.3118 3.58989 16.9049 3.85471C16.4996 4.12217 16.1108 4.4148 15.7431 4.7339C15.3799 5.05698 15.0394 5.40522 14.7259 5.77729C14.411 6.14803 14.1352 6.54923 13.8866 6.965C13.8278 7.07092 13.76 7.17288 13.7072 7.28145C13.6515 7.3887 13.5957 7.49728 13.5415 7.60453C13.442 7.82565 13.3396 8.04545 13.2567 8.2732C13.0879 8.72736 12.9478 9.19476 12.8649 9.67408C12.779 10.1521 12.7338 10.6393 12.7308 11.1306C12.7338 11.6218 12.779 12.1091 12.8649 12.5884C12.9493 13.0677 13.0879 13.5351 13.2567 13.9893L13.3215 14.1588L13.3546 14.2435L13.3923 14.3269C13.442 14.4382 13.4918 14.5481 13.5415 14.658C13.5972 14.7665 13.653 14.8738 13.7072 14.981C13.76 15.0896 13.8278 15.1916 13.8866 15.2975C14.1352 15.7133 14.411 16.1145 14.7259 16.4865C15.0394 16.8586 15.3799 17.2068 15.7431 17.5299C16.1108 17.849 16.4996 18.143 16.9065 18.4104C17.3133 18.6753 17.7413 18.9083 18.1753 19.1162C18.6123 19.3227 19.0629 19.4935 19.5165 19.6432C19.9731 19.7848 20.4327 19.9014 20.8938 19.9887C21.3564 20.0695 21.816 20.1344 22.2741 20.1582C23.1888 20.2205 24.0855 20.1662 24.9308 20.0298C25.7792 19.8961 26.5734 19.6617 27.3012 19.3717C28.0291 19.0804 28.6891 18.7295 29.2708 18.3376C30.4372 17.5551 31.2931 16.6388 31.8898 15.7623C32.1912 15.3253 32.4218 14.891 32.6071 14.4858C32.797 14.0807 32.9251 13.6953 33.0306 13.3471C33.1285 12.9976 33.1963 12.6824 33.24 12.4083C33.2596 12.2706 33.2807 12.1435 33.2943 12.027C33.3048 11.9105 33.3139 11.8045 33.3229 11.7105C33.3335 11.6165 33.335 11.5331 33.338 11.4603C33.341 11.3888 33.3425 11.3279 33.344 11.2789C33.347 11.1822 33.3501 11.1319 33.3501 11.1319C33.3501 11.1319 33.35 11.1822 33.3485 11.2789C33.3485 11.3279 33.3455 11.3875 33.344 11.4603C33.344 11.5318 33.341 11.6165 33.332 11.7105C33.3244 11.8059 33.3154 11.9118 33.3048 12.0283C33.2913 12.1448 33.2717 12.2719 33.2521 12.4097C33.2099 12.6851 33.1421 13.0002 33.0457 13.3511C32.9417 13.6993 32.8151 14.086 32.6252 14.4924C32.4399 14.9003 32.2108 15.3346 31.9094 15.7728C31.3142 16.652 30.4567 17.5723 29.2889 18.3575C28.7072 18.7507 28.0457 19.1043 27.3148 19.3969C26.5855 19.6882 25.7883 19.9239 24.9384 20.0589C24.09 20.198 23.1903 20.2522 22.2726 20.19C21.813 20.1662 21.3504 20.1013 20.8863 20.0205C20.4236 19.9345 19.961 19.8179 19.5029 19.6749C19.0478 19.5253 18.5957 19.3545 18.1572 19.1466C17.7202 18.9374 17.2922 18.7044 16.8823 18.4382C16.4755 18.1708 16.0837 17.8755 15.7145 17.5551C15.3498 17.2307 15.0077 16.8811 14.6928 16.5077C14.3763 16.1356 14.099 15.7331 13.8489 15.3147C13.7901 15.2088 13.7223 15.1055 13.6681 14.9969C13.6123 14.8884 13.5566 14.7811 13.5008 14.6725C13.4511 14.5613 13.4013 14.4514 13.3516 14.3402L13.3139 14.2568L13.2808 14.172L13.2145 14.0012C13.0442 13.5457 12.9041 13.0757 12.8212 12.595C12.7353 12.1144 12.6901 11.6245 12.6855 11.1319C12.6901 10.6393 12.7353 10.1494 12.8212 9.67011C12.9056 9.18947 13.0457 8.71941 13.216 8.26393C13.2989 8.03486 13.4013 7.81374 13.5008 7.59261C13.5566 7.48404 13.6123 7.37546 13.6681 7.26821C13.7223 7.15964 13.7886 7.05636 13.8489 6.95043C14.099 6.53202 14.3763 6.13082 14.6928 5.75743C15.0077 5.38403 15.3498 5.03447 15.7145 4.71007C16.0837 4.38964 16.4755 4.09569 16.8823 3.8269C17.2907 3.56076 17.7202 3.32772 18.1572 3.11851C18.5957 2.91195 19.0478 2.73982 19.5029 2.5902C19.961 2.4472 20.4221 2.33068 20.8863 2.24461C21.3504 2.16384 21.813 2.09896 22.2726 2.07513C23.1903 2.0129 24.09 2.06719 24.9384 2.20621C25.7883 2.34127 26.5855 2.57564 27.3148 2.86826C28.0442 3.16088 28.7057 3.51442 29.2889 3.90767C30.4583 4.69286 31.3142 5.6131 31.9109 6.4923C32.2123 6.93189 32.4414 7.36619 32.6267 7.77269C32.8166 8.17919 32.9432 8.56582 33.0472 8.91406C33.1436 9.26494 33.2114 9.58007 33.2536 9.85548C33.2717 9.99319 33.2928 10.1203 33.3064 10.2368C33.3154 10.3533 33.3244 10.4593 33.3335 10.5546C33.3425 10.6486 33.3455 10.7334 33.3455 10.8049C33.347 10.8764 33.3485 10.9373 33.3501 10.9863C33.3516 11.0829 33.3516 11.1332 33.3516 11.1332H33.3485Z" fill="#263238"/>
<path d="M23.9634 12.8757C25.0589 12.4728 25.5754 11.3658 25.1169 10.4032C24.6584 9.44057 23.3986 8.9868 22.303 9.38968C21.2075 9.79255 20.691 10.8995 21.1495 11.8621C21.608 12.8248 22.8678 13.2785 23.9634 12.8757Z" fill="#E0E0E0"/>
<path d="M22.4983 11.2604C22.5917 11.5438 22.9278 11.7067 23.2518 11.6259L30.7306 9.76025L23.0122 10.5772C22.6384 10.6169 22.3928 10.9427 22.4998 11.2604H22.4983Z" fill="#455A64"/>
<path d="M4.33694 5.90177C3.94062 5.42245 2.76521 5.12585 2.10216 5.23442C1.74201 5.29401 1.4135 5.44628 1.06992 5.5575C0.726339 5.66873 0.340566 5.73493 0 5.61973C1.05184 6.47907 3.12537 6.5797 4.33694 5.90177Z" fill="#933EFE"/>
</svg>
